<?xml version="1.0" encoding="utf-8"?>
<!-- Generator: Adobe Illustrator 22.1.0, SVG Export Plug-In . SVG Version: 6.00 Build 0)  -->
<svg version="1.1" id="Layer_1" xmlns="http://www.w3.org/2000/svg" xmlns:xlink="http://www.w3.org/1999/xlink" x="0px" y="0px"
	 viewBox="0 0 150 150" style="enable-background:new 0 0 150 150;" xml:space="preserve">
<style type="text/css">
	.st0{fill:#FFFFFF;}
	.st1{fill:#F4F4F4;}
</style>
<path class="st0" d="M142.6,97.3v-3.7c0-1.5-0.4-2.6-1.1-3.3c-0.6-0.5-1.3-0.8-2.3-0.8c-1,0-1.8,0.3-2.4,0.9c-0.8,0.8-1,1.8-1,3.2
	V114c0,1.6,0.2,2.4,0.9,3.1c0.6,0.7,1.4,1.1,2.6,1.1c1.1,0,2-0.4,2.5-1.1c0.6-0.7,0.9-1.7,0.9-3.1v-2.4c1.7-0.5,3.5-1,6.4-1.7v13.6
	c-1.2,0-2.9,0-2.9,0l-1.3-2.9c-1.3,2.3-4.1,3.4-6.8,3.4c-2.9,0-4.8-0.7-6.5-2.4c-1.8-1.7-2.5-4.2-2.5-7.7V94.3
	c0-3.6,0.9-6.2,2.7-8.1c1.7-1.8,4.2-2.7,7.3-2.7c3.1,0,5.5,0.9,7.3,2.6c1.8,1.8,2.7,4.5,2.7,8.3v1L142.6,97.3z M138.2,105.2v5.6
	l8.9-2.4c0.6-0.2,1.1-0.5,1.5-1c0.2-0.4,0.4-0.8,0.4-1.4c0-0.2,0-3.7,0-3.7L138.2,105.2z M118.9,106.4h-0.1l-8.2-22.3h-6.4v39.3h6.3
	V99.1h0.1l8.6,24.3h6.1V84.1h-6.3V106.4z M92.5,123.5h6.8V84.1h-6.8V123.5z M79.1,84.1h-6.7v39.3h17.3v-5.9H79.1V84.1z M63.6,104.6
	l5.9,18.9h-7l-4.9-17l-3.3,0.9v16.1h-6.8V84.1h9.5c7.6,0,11.4,2.6,11.4,10.9C68.6,101.4,65.9,103.6,63.6,104.6z M60.7,98.8
	c0.8-0.8,1.2-1.9,1.2-4c0-2.3-0.5-3.4-1.2-4.2c-0.8-0.8-1.9-0.9-3.8-0.9h-2.4v11.6l2.5-0.7C58.8,100.1,59.9,99.6,60.7,98.8z
	 M42.1,104.6l-11.3,3L33.2,92h0.2l2,12.5l4.1-1.1c0.6-0.2,1.1-0.5,1.5-1c0.3-0.5,0.4-1.1,0.3-1.8l-3-16.5l-9.6,2.6l-6.9,36.8h6.5
	l1.6-9.8l6.9-1.9l1.9,11.6h7.1L42.1,104.6z M14.6,113.9c0,1.4-0.2,2.4-0.9,3.2c-0.6,0.6-1.4,1-2.5,1c-1.2,0-2-0.4-2.6-1.1
	c-0.6-0.7-0.8-1.4-0.8-3V93.5c0-1.4,0.3-2.4,0.9-3.1c0.6-0.6,1.4-1,2.5-1c1.2,0,2,0.4,2.6,1.1c0.7,0.8,0.9,1.8,0.9,3.4v3.4l6.4-1.7
	v-1.4c0-6.9-3.9-10.5-10-10.5c-3,0-5.5,0.9-7.2,2.6C1.8,88.1,1,90.7,1,94.9v18c0,4.2,0.9,6.5,2.7,8.4c1.7,1.8,4.2,2.7,7.3,2.7
	c3.4,0,6-1.1,7.8-3.2c1.6-2,2.2-4.4,2.2-8.1V110c-2.9,0.8-4.7,1.3-6.4,1.7V113.9z"/>
<g>
	<path class="st0" d="M112.3,58.2c2.4-3.2,6.5-8.6,11.2-15.1v0V26.3L28.7,51.8v32.9c0,0,8.2-2.2,73.9-19.9c0.5-0.1,1-0.3,1.4-0.4
		C107.3,63.4,109.5,61.9,112.3,58.2z"/>
	<path class="st1" d="M112.3,58.2c2.4-3.2,6.5-8.6,11.2-15.1v0l-14.9,4c0,0,0,5.9,0,9.5c0,2.5-0.1,3.5-0.8,4.8
		c-0.8,1.5-2.3,2.5-3.9,3C107.3,63.4,109.5,61.9,112.3,58.2z"/>
	<path class="st0" d="M125.9,26.3v0.3h-0.6v1.5H125v-1.5h-0.6v-0.3H125.9z M127.8,28.1l-0.1-1c0-0.1,0-0.3,0-0.5h0
		c0,0.2-0.1,0.4-0.1,0.5l-0.3,1h-0.4l-0.3-1c0-0.1-0.1-0.3-0.1-0.5h0c0,0.2,0,0.3,0,0.5l-0.1,1H126l0.1-1.8h0.5l0.3,0.9
		c0,0.1,0.1,0.3,0.1,0.4h0c0-0.2,0.1-0.3,0.1-0.4l0.3-0.9h0.5l0.1,1.8H127.8z"/>
</g>
</svg>
